<svg width="50" height="50" viewBox="0 0 50 50" fill="none" xmlns="http://www.w3.org/2000/svg">
<rect width="50" height="50" rx="5" fill="#5865F2"/>
<path d="M36.1276 14.8461C39.7209 20.1817 41.5176 26.1705 40.8643 33.085C40.8643 33.085 40.8643 33.1394 40.8098 33.1394C38.4143 34.9361 35.6921 36.2972 32.8065 37.1683C32.7521 37.2227 32.7521 37.1683 32.6976 37.1683C32.0987 36.2972 31.5543 35.4261 31.0643 34.5005C31.0643 34.4461 31.0643 34.4461 31.0643 34.3916L31.1187 34.3372C31.9898 34.0105 32.8065 33.6294 33.6232 33.1394C33.6232 33.1394 33.6776 33.1394 33.6776 33.085C33.6776 33.0305 33.6776 33.0305 33.6232 32.9761C33.4598 32.8672 33.2965 32.7583 33.1332 32.595C33.0787 32.595 33.0787 32.595 33.0243 32.595C27.8521 34.9905 22.1899 34.9905 16.9632 32.595C16.9088 32.595 16.8543 32.595 16.8543 32.595C16.691 32.7583 16.5276 32.8672 16.3643 32.9761C16.3099 33.0305 16.3099 33.0305 16.3099 33.085C16.3099 33.1394 16.3099 33.1394 16.3643 33.1394C17.1265 33.6294 17.9976 34.0105 18.8688 34.3372C18.8688 34.3372 18.8688 34.3916 18.9232 34.3916C18.9232 34.4461 18.9232 34.4461 18.9232 34.5005C18.4332 35.4261 17.8888 36.2972 17.2899 37.1683C17.2354 37.1683 17.181 37.2227 17.181 37.1683C14.2954 36.2972 11.5732 34.9361 9.17766 33.1394C9.12322 33.1394 9.12322 33.085 9.12322 33.085C8.57877 27.0961 9.7221 21.0528 13.8599 14.8461C13.8599 14.8461 13.8599 14.8461 13.9143 14.8461C15.9832 13.8661 18.161 13.2128 20.3932 12.8317C20.4476 12.7772 20.5021 12.8317 20.5021 12.8317C20.8287 13.3761 21.101 13.975 21.3187 14.5195C23.7687 14.1384 26.2187 14.1384 28.6687 14.5195C28.8865 13.975 29.1587 13.3761 29.4854 12.8317C29.4854 12.8317 29.5398 12.7772 29.5943 12.8317C31.8265 13.2128 34.0043 13.8661 36.0732 14.8461C36.1276 14.8461 36.1276 14.8461 36.1276 14.8461ZM19.6854 29.4372C21.2643 29.4372 22.571 27.9672 22.571 26.225C22.571 24.4283 21.3187 23.0128 19.6854 23.0128C18.1065 23.0128 16.7999 24.4283 16.7999 26.225C16.7999 27.9672 18.1065 29.4372 19.6854 29.4372ZM30.3021 29.4372C31.9354 29.4372 33.1876 27.9672 33.1876 26.225C33.2421 24.4283 31.9354 23.0128 30.3021 23.0128C28.7232 23.0128 27.471 24.4283 27.471 26.225C27.471 27.9672 28.7232 29.4372 30.3021 29.4372Z" fill="white"/>
</svg>
