<svg width="60" height="60" viewBox="0 0 60 60" fill="none" xmlns="http://www.w3.org/2000/svg">
<rect width="60" height="60" rx="5" fill="#1E1E1E"/>
<g clip-path="url(#clip0_65_2040)">
<path d="M29.9867 30C29.9867 28.3203 30.6539 26.7094 31.8417 25.5217C33.0294 24.3339 34.6403 23.6667 36.32 23.6667C37.9997 23.6667 39.6106 24.3339 40.7983 25.5217C41.9861 26.7094 42.6533 28.3203 42.6533 30C42.6533 31.6797 41.9861 33.2906 40.7983 34.4784C39.6106 35.6661 37.9997 36.3334 36.32 36.3334C34.6403 36.3334 33.0294 35.6661 31.8417 34.4784C30.6539 33.2906 29.9867 31.6797 29.9867 30Z" fill="#1ABCFE"/>
<path d="M17.32 42.6666C17.32 40.9869 17.9873 39.376 19.175 38.1883C20.3627 37.0006 21.9736 36.3333 23.6533 36.3333H29.9867V42.6666C29.9867 44.3464 29.3194 45.9573 28.1317 47.145C26.944 48.3327 25.333 49 23.6533 49C21.9736 49 20.3627 48.3327 19.175 47.145C17.9873 45.9573 17.32 44.3464 17.32 42.6666V42.6666Z" fill="#0ACF83"/>
<path d="M29.9867 11V23.6667H36.32C37.9997 23.6667 39.6106 22.9994 40.7983 21.8117C41.9861 20.6239 42.6533 19.013 42.6533 17.3333C42.6533 15.6536 41.9861 14.0427 40.7983 12.855C39.6106 11.6673 37.9997 11 36.32 11H29.9867Z" fill="#FF7262"/>
<path d="M17.32 17.3333C17.32 19.013 17.9873 20.6239 19.175 21.8117C20.3627 22.9994 21.9736 23.6667 23.6533 23.6667H29.9867V11H23.6533C21.9736 11 20.3627 11.6673 19.175 12.855C17.9873 14.0427 17.32 15.6536 17.32 17.3333V17.3333Z" fill="#F24E1E"/>
<path d="M17.32 30C17.32 31.6797 17.9873 33.2906 19.175 34.4784C20.3627 35.6661 21.9736 36.3334 23.6533 36.3334H29.9867V23.6667H23.6533C21.9736 23.6667 20.3627 24.3339 19.175 25.5217C17.9873 26.7094 17.32 28.3203 17.32 30V30Z" fill="#A259FF"/>
</g>
<defs>
<clipPath id="clip0_65_2040">
<rect width="25.3333" height="38" fill="white" transform="translate(17.32 11)"/>
</clipPath>
</defs>
</svg>
