<svg width="30" height="30" viewBox="0 0 30 30" fill="none" xmlns="http://www.w3.org/2000/svg">
<rect width="30" height="30" rx="15" fill="#3A3A3A"/>
<path d="M12.334 15C12.334 13.5273 13.5276 12.3331 15.0004 12.3331C16.4731 12.3331 17.6674 13.5273 17.6674 15C17.6674 16.4727 16.4731 17.6669 15.0004 17.6669C13.5276 17.6669 12.334 16.4727 12.334 15ZM10.8923 15C10.8923 17.2688 12.7315 19.1079 15.0004 19.1079C17.2693 19.1079 19.1084 17.2688 19.1084 15C19.1084 12.7312 17.2693 10.8921 15.0004 10.8921C12.7315 10.8921 10.8923 12.7312 10.8923 15ZM18.311 10.7292C18.311 10.9191 18.3672 11.1047 18.4726 11.2626C18.5781 11.4205 18.7279 11.5436 18.9033 11.6164C19.0787 11.6891 19.2718 11.7082 19.458 11.6712C19.6442 11.6343 19.8153 11.5429 19.9497 11.4087C20.084 11.2745 20.1755 11.1035 20.2126 10.9173C20.2497 10.7311 20.2308 10.538 20.1582 10.3626C20.0856 10.1871 19.9626 10.0372 19.8048 9.9316C19.6469 9.82605 19.4613 9.76968 19.2715 9.7696H19.2711C19.0166 9.76972 18.7725 9.87085 18.5925 10.0508C18.4125 10.2307 18.3113 10.4747 18.311 10.7292ZM11.7683 21.5118C10.9883 21.4763 10.5643 21.3464 10.2826 21.2366C9.90904 21.0912 9.64253 20.918 9.36233 20.6382C9.08213 20.3584 8.90868 20.0922 8.76391 19.7187C8.65408 19.4371 8.52415 19.013 8.4887 18.233C8.44991 17.3898 8.44217 17.1364 8.44217 15.0001C8.44217 12.8637 8.45055 12.6111 8.4887 11.7671C8.52422 10.9871 8.6551 10.5639 8.76391 10.2815C8.90932 9.90797 9.08251 9.64147 9.36233 9.36128C9.64215 9.08109 9.9084 8.90765 10.2826 8.76288C10.5642 8.65306 10.9883 8.52314 11.7683 8.48768C12.6115 8.4489 12.8649 8.44115 15.0004 8.44115C17.1359 8.44115 17.3895 8.44954 18.2335 8.48768C19.0135 8.5232 19.4367 8.65408 19.7192 8.76288C20.0927 8.90765 20.3592 9.08147 20.6394 9.36128C20.9196 9.64109 21.0924 9.90797 21.2378 10.2815C21.3476 10.5631 21.4776 10.9871 21.513 11.7671C21.5518 12.6111 21.5596 12.8637 21.5596 15.0001C21.5596 17.1364 21.5518 17.3891 21.513 18.233C21.4775 19.013 21.3469 19.4369 21.2378 19.7187C21.0924 20.0922 20.9192 20.3587 20.6394 20.6382C20.3596 20.9178 20.0927 21.0912 19.7192 21.2366C19.4376 21.3464 19.0135 21.4764 18.2335 21.5118C17.3902 21.5506 17.1369 21.5583 15.0004 21.5583C12.8639 21.5583 12.6113 21.5506 11.7683 21.5118ZM11.702 7.04845C10.8503 7.08723 10.2684 7.22227 9.76011 7.42003C9.23375 7.62426 8.78816 7.89824 8.3429 8.34278C7.89763 8.78733 7.62434 9.2336 7.42011 9.75994C7.22234 10.2685 7.0873 10.8501 7.04851 11.7018C7.00909 12.5548 7.00006 12.8275 7.00006 15C7.00006 17.1725 7.00909 17.4452 7.04851 18.2982C7.0873 19.15 7.22234 19.7315 7.42011 20.2401C7.62434 20.7661 7.8977 21.2129 8.3429 21.6572C8.7881 22.1016 9.23375 22.3752 9.76011 22.58C10.2693 22.7777 10.8503 22.9128 11.702 22.9516C12.5555 22.9903 12.8278 23 15.0004 23C17.173 23 17.4457 22.991 18.2988 22.9516C19.1505 22.9128 19.7321 22.7777 20.2407 22.58C20.7667 22.3752 21.2126 22.1018 21.6579 21.6572C22.1031 21.2127 22.3758 20.7661 22.5807 20.2401C22.7784 19.7315 22.9141 19.1499 22.9523 18.2982C22.991 17.4446 23.0001 17.1725 23.0001 15C23.0001 12.8275 22.991 12.5548 22.9523 11.7018C22.9135 10.85 22.7784 10.2682 22.5807 9.75994C22.3758 9.23392 22.1024 8.78803 21.6579 8.34278C21.2133 7.89754 20.7667 7.62426 20.2413 7.42003C19.7321 7.22227 19.1504 7.08659 18.2994 7.04845C17.4464 7.00966 17.1737 7 15.001 7C12.8284 7 12.5555 7.00902 11.702 7.04845Z" fill="#D9D9D9"/>
<path d="M12.334 15C12.334 13.5273 13.5276 12.3331 15.0004 12.3331C16.4731 12.3331 17.6674 13.5273 17.6674 15C17.6674 16.4727 16.4731 17.6669 15.0004 17.6669C13.5276 17.6669 12.334 16.4727 12.334 15ZM10.8923 15C10.8923 17.2688 12.7315 19.1079 15.0004 19.1079C17.2693 19.1079 19.1084 17.2688 19.1084 15C19.1084 12.7312 17.2693 10.8921 15.0004 10.8921C12.7315 10.8921 10.8923 12.7312 10.8923 15ZM18.311 10.7292C18.311 10.9191 18.3672 11.1047 18.4726 11.2626C18.5781 11.4205 18.7279 11.5436 18.9033 11.6164C19.0787 11.6891 19.2718 11.7082 19.458 11.6712C19.6442 11.6343 19.8153 11.5429 19.9497 11.4087C20.084 11.2745 20.1755 11.1035 20.2126 10.9173C20.2497 10.7311 20.2308 10.538 20.1582 10.3626C20.0856 10.1871 19.9626 10.0372 19.8048 9.9316C19.6469 9.82605 19.4613 9.76968 19.2715 9.7696H19.2711C19.0166 9.76972 18.7725 9.87085 18.5925 10.0508C18.4125 10.2307 18.3113 10.4747 18.311 10.7292ZM11.7683 21.5118C10.9883 21.4763 10.5643 21.3464 10.2826 21.2366C9.90904 21.0912 9.64253 20.918 9.36233 20.6382C9.08213 20.3584 8.90868 20.0922 8.76391 19.7187C8.65408 19.4371 8.52415 19.013 8.4887 18.233C8.44991 17.3898 8.44217 17.1364 8.44217 15.0001C8.44217 12.8637 8.45055 12.6111 8.4887 11.7671C8.52422 10.9871 8.6551 10.5639 8.76391 10.2815C8.90932 9.90797 9.08251 9.64147 9.36233 9.36128C9.64215 9.08109 9.9084 8.90765 10.2826 8.76288C10.5642 8.65306 10.9883 8.52314 11.7683 8.48768C12.6115 8.4489 12.8649 8.44115 15.0004 8.44115C17.1359 8.44115 17.3895 8.44954 18.2335 8.48768C19.0135 8.5232 19.4367 8.65408 19.7192 8.76288C20.0927 8.90765 20.3592 9.08147 20.6394 9.36128C20.9196 9.64109 21.0924 9.90797 21.2378 10.2815C21.3476 10.5631 21.4776 10.9871 21.513 11.7671C21.5518 12.6111 21.5596 12.8637 21.5596 15.0001C21.5596 17.1364 21.5518 17.3891 21.513 18.233C21.4775 19.013 21.3469 19.4369 21.2378 19.7187C21.0924 20.0922 20.9192 20.3587 20.6394 20.6382C20.3596 20.9178 20.0927 21.0912 19.7192 21.2366C19.4376 21.3464 19.0135 21.4764 18.2335 21.5118C17.3902 21.5506 17.1369 21.5583 15.0004 21.5583C12.8639 21.5583 12.6113 21.5506 11.7683 21.5118ZM11.702 7.04845C10.8503 7.08723 10.2684 7.22227 9.76011 7.42003C9.23375 7.62426 8.78816 7.89824 8.3429 8.34278C7.89763 8.78733 7.62434 9.2336 7.42011 9.75994C7.22234 10.2685 7.0873 10.8501 7.04851 11.7018C7.00909 12.5548 7.00006 12.8275 7.00006 15C7.00006 17.1725 7.00909 17.4452 7.04851 18.2982C7.0873 19.15 7.22234 19.7315 7.42011 20.2401C7.62434 20.7661 7.8977 21.2129 8.3429 21.6572C8.7881 22.1016 9.23375 22.3752 9.76011 22.58C10.2693 22.7777 10.8503 22.9128 11.702 22.9516C12.5555 22.9903 12.8278 23 15.0004 23C17.173 23 17.4457 22.991 18.2988 22.9516C19.1505 22.9128 19.7321 22.7777 20.2407 22.58C20.7667 22.3752 21.2126 22.1018 21.6579 21.6572C22.1031 21.2127 22.3758 20.7661 22.5807 20.2401C22.7784 19.7315 22.9141 19.1499 22.9523 18.2982C22.991 17.4446 23.0001 17.1725 23.0001 15C23.0001 12.8275 22.991 12.5548 22.9523 11.7018C22.9135 10.85 22.7784 10.2682 22.5807 9.75994C22.3758 9.23392 22.1024 8.78803 21.6579 8.34278C21.2133 7.89754 20.7667 7.62426 20.2413 7.42003C19.7321 7.22227 19.1504 7.08659 18.2994 7.04845C17.4464 7.00966 17.1737 7 15.001 7C12.8284 7 12.5555 7.00902 11.702 7.04845Z" fill="#D9D9D9"/>
</svg>
