<svg width="60" height="60" viewBox="0 0 60 60" fill="none" xmlns="http://www.w3.org/2000/svg">
<rect width="60" height="60" rx="5" fill="url(#paint0_linear_65_2048)"/>
<g clip-path="url(#clip0_65_2048)">
<path fill-rule="evenodd" clip-rule="evenodd" d="M16.1311 28.1928C24.4526 24.5236 30.0016 22.1046 32.778 20.9359C40.7053 17.5989 42.3525 17.0193 43.4261 17.0001C43.6623 16.9959 44.1903 17.0552 44.5323 17.336C44.821 17.5732 44.9005 17.8935 44.9385 18.1184C44.9765 18.3432 45.0239 18.8554 44.9862 19.2556C44.5567 23.8236 42.6979 34.909 41.7522 40.0253C41.3521 42.1901 40.5642 42.916 39.8014 42.9871C38.1438 43.1414 36.885 41.8784 35.2795 40.8132C32.7671 39.1465 31.3478 38.109 28.9092 36.4826C26.0909 34.603 27.9178 33.57 29.524 31.8817C29.9443 31.4398 37.248 24.7165 37.3894 24.1066C37.4071 24.0303 37.4235 23.746 37.2566 23.5959C37.0897 23.4457 36.8433 23.4971 36.6656 23.5379C36.4136 23.5958 32.4001 26.2805 24.6251 31.5921C23.4859 32.3838 22.454 32.7695 21.5295 32.7493C20.5103 32.727 18.5497 32.1661 17.0922 31.6866C15.3046 31.0985 13.8838 30.7876 14.0075 29.7888C14.072 29.2686 14.7798 28.7366 16.1311 28.1928Z" fill="white"/>
</g>
<defs>
<linearGradient id="paint0_linear_65_2048" x1="30" y1="0" x2="30" y2="60" gradientUnits="userSpaceOnUse">
<stop stop-color="#2AABEE"/>
<stop offset="1" stop-color="#229ED9"/>
</linearGradient>
<clipPath id="clip0_65_2048">
<rect width="52.1739" height="52.1739" fill="white" transform="translate(3.91306 3.91302)"/>
</clipPath>
</defs>
</svg>
