<svg width="50" height="50" viewBox="0 0 50 50" fill="none" xmlns="http://www.w3.org/2000/svg">
<rect width="50" height="50" rx="5" fill="#25D366"/>
<path d="M7 42.9999L9.53049 33.7554C7.969 31.0494 7.1485 27.982 7.15 24.8365C7.1545 15.0025 15.157 7 24.9895 7C29.761 7.0015 34.2399 8.86 37.6089 12.232C40.9764 15.604 42.8304 20.086 42.8289 24.853C42.8244 34.6884 34.8219 42.6909 24.9895 42.6909C22.0045 42.6894 19.063 41.9409 16.4575 40.5189L7 42.9999ZM16.8955 37.2894C19.4095 38.7819 21.8095 39.6759 24.9835 39.6774C33.1554 39.6774 39.8124 33.0264 39.8169 24.85C39.8199 16.657 33.1944 10.015 24.9955 10.012C16.8175 10.012 10.165 16.663 10.162 24.838C10.1605 28.1755 11.1385 30.6744 12.781 33.2889L11.2825 38.7609L16.8955 37.2894ZM33.9759 29.0934C33.8649 28.9074 33.5679 28.7964 33.1209 28.573C32.6754 28.3495 30.4839 27.271 30.0744 27.1225C29.6664 26.974 29.3694 26.899 29.071 27.346C28.774 27.7915 27.919 28.7964 27.6595 29.0934C27.4 29.3904 27.139 29.4279 26.6935 29.2044C26.248 28.9809 24.811 28.5114 23.1085 26.992C21.784 25.81 20.8885 24.3505 20.629 23.9035C20.3695 23.458 20.602 23.2165 20.824 22.9945C21.025 22.795 21.2695 22.474 21.493 22.213C21.7195 21.955 21.793 21.769 21.943 21.4705C22.0915 21.1735 22.018 20.9125 21.9055 20.689C21.793 20.467 20.902 18.2725 20.5315 17.38C20.1685 16.5115 19.801 16.6285 19.528 16.615L18.673 16.6C18.376 16.6 17.893 16.711 17.485 17.158C17.077 17.605 15.925 18.682 15.925 20.8765C15.925 23.071 17.5225 25.1905 17.7445 25.4875C17.968 25.7845 20.887 30.2874 25.3585 32.2179C26.422 32.6769 27.253 32.9514 27.8995 33.1569C28.9675 33.4959 29.9394 33.4479 30.7074 33.3339C31.5639 33.2064 33.3444 32.2554 33.7164 31.2144C34.0884 30.1719 34.0884 29.2794 33.9759 29.0934Z" fill="white"/>
</svg>
