<svg width="30" height="30" viewBox="0 0 30 30" fill="none" xmlns="http://www.w3.org/2000/svg">
<path fill-rule="evenodd" clip-rule="evenodd" d="M0 15C0 23.2843 6.71573 30 15 30C23.2843 30 30 23.2843 30 15C30 6.71573 23.2843 0 15 0C6.71573 0 0 6.71573 0 15ZM24.4138 14.4259C24.4119 19.3427 20.4122 23.3433 15.4944 23.3453H15.4907C13.9979 23.3448 12.5311 22.9703 11.2283 22.2597L6.5 23.5L7.76538 18.878C6.98483 17.5253 6.57411 15.9909 6.57478 14.4189C6.57674 9.50106 10.578 5.5 15.4943 5.5C17.8804 5.50103 20.1199 6.42992 21.8039 8.11588C23.4879 9.80176 24.4148 12.0427 24.4138 14.4259Z" fill="#3A3A3A"/>
<path fill-rule="evenodd" clip-rule="evenodd" d="M8.64157 21.381L11.4474 20.645L11.7181 20.8057C12.8564 21.4811 14.1611 21.8385 15.4914 21.839H15.4944C19.5805 21.839 22.9062 18.5133 22.9078 14.4255C22.9086 12.4446 22.1382 10.582 20.7386 9.18069C19.3389 7.77938 17.4775 7.00728 15.4974 7.00659C11.4081 7.00659 8.08237 10.332 8.08075 14.4195C8.08018 15.8203 8.47212 17.1845 9.21423 18.3648L9.39049 18.6453L8.64157 21.381ZM19.6828 16.3464C19.8382 16.4215 19.9432 16.4722 19.988 16.547C20.0437 16.6399 20.0437 17.0862 19.8581 17.6069C19.6723 18.1274 18.7819 18.6026 18.3537 18.6665C17.9697 18.7239 17.4839 18.7479 16.95 18.5782C16.6263 18.4755 16.2112 18.3384 15.6795 18.1087C13.5901 17.2066 12.1782 15.1816 11.9113 14.7988C11.8926 14.772 11.8795 14.7533 11.8722 14.7435L11.8704 14.7411C11.7525 14.5838 10.9622 13.5293 10.9622 12.4381C10.9622 11.4115 11.4665 10.8734 11.6986 10.6257C11.7145 10.6087 11.7291 10.5931 11.7422 10.5788C11.9465 10.3557 12.188 10.2999 12.3365 10.2999C12.4851 10.2999 12.6338 10.3013 12.7637 10.3078C12.7797 10.3086 12.7964 10.3085 12.8136 10.3084C12.9435 10.3077 13.1054 10.3067 13.2651 10.6904C13.3266 10.838 13.4165 11.0569 13.5113 11.2878C13.7031 11.7547 13.915 12.2705 13.9523 12.3452C14.008 12.4568 14.0451 12.5869 13.9708 12.7357C13.9597 12.758 13.9494 12.779 13.9395 12.7992C13.8837 12.9131 13.8427 12.9969 13.748 13.1074C13.7107 13.1509 13.6723 13.1978 13.6338 13.2446C13.5571 13.338 13.4804 13.4314 13.4137 13.4979C13.3021 13.609 13.186 13.7296 13.316 13.9527C13.446 14.1759 13.8932 14.9056 14.5558 15.4966C15.268 16.1319 15.887 16.4004 16.2008 16.5365C16.262 16.563 16.3117 16.5846 16.3481 16.6028C16.5708 16.7144 16.7009 16.6957 16.8309 16.547C16.9609 16.3983 17.388 15.8962 17.5365 15.6731C17.6851 15.4501 17.8337 15.4873 18.038 15.5616C18.2423 15.6361 19.338 16.1751 19.5609 16.2867C19.6044 16.3085 19.6451 16.3281 19.6828 16.3464Z" fill="#3A3A3A"/>
</svg>
