<svg width="721" height="701" viewBox="0 0 721 701" fill="none" xmlns="http://www.w3.org/2000/svg">
<path fill-rule="evenodd" clip-rule="evenodd" d="M721 0.937057C721.002 0.933434 721.003 0.930717 720.228 0.463386C719.452 -0.00394686 719.451 -0.00304302 719.449 0.000579716L719.44 0.015077L719.405 0.0739484C719.372 0.127384 719.324 0.20707 719.26 0.31213C719.13 0.524065 718.937 0.839252 718.678 1.25677C718.161 2.09181 717.386 3.33169 716.355 4.95105C714.293 8.18797 711.209 12.9383 707.121 18.9864C698.946 31.0819 686.76 48.3659 670.719 69.1097C638.638 110.597 591.147 165.914 529.511 221.23C406.232 331.868 226.439 442.438 0.22998 442.438V444.249C227.054 444.249 407.26 333.379 530.721 222.577C592.456 167.173 640.02 111.77 672.152 70.2174C688.218 49.441 700.428 32.1252 708.622 20.0008C712.719 13.9381 715.813 9.17424 717.883 5.92377C718.918 4.29897 719.697 3.05183 720.218 2.21045C720.478 1.79021 720.674 1.47142 720.805 1.25677C720.871 1.149 720.92 1.06838 720.953 1.01404L720.99 0.952453L721 0.937057ZM720.914 134.191C720.916 134.188 720.917 134.187 720.228 133.599C719.538 133.012 719.537 133.013 719.536 133.015L719.527 133.025L719.491 133.067L719.428 133.14L719.347 133.234C719.292 133.298 719.225 133.375 719.146 133.466L719.021 133.611C718.944 133.699 718.86 133.796 718.767 133.902C718.25 134.491 717.476 135.368 716.446 136.513C714.386 138.801 711.303 142.161 707.217 146.439C699.045 154.994 686.861 167.221 670.824 181.895C638.75 211.243 591.264 250.381 529.631 289.518C406.364 367.794 226.531 446.06 0.22998 446.06V447.872C226.962 447.872 407.128 369.455 530.602 291.047C592.339 251.844 639.909 212.638 672.047 183.231C688.117 168.527 700.329 156.272 708.527 147.69C712.625 143.399 715.72 140.026 717.792 137.725C718.828 136.573 719.608 135.69 720.129 135.094C720.39 134.796 720.587 134.57 720.718 134.418C720.784 134.342 720.833 134.285 720.866 134.246L720.904 134.202L720.914 134.191ZM720.228 225.979C720.811 226.672 720.809 226.674 720.807 226.675L720.797 226.684L720.76 226.715L720.662 226.797L720.611 226.838C720.479 226.948 720.283 227.11 720.022 227.324C719.5 227.751 718.719 228.384 717.683 229.21C715.611 230.861 712.515 233.279 708.415 236.354C700.216 242.507 688.003 251.292 671.932 261.831C639.792 282.911 592.224 311.011 530.491 339.108C407.026 395.304 226.899 451.494 0.22998 451.494V449.683C226.594 449.683 406.466 393.569 529.741 337.46C591.379 309.405 638.866 281.352 670.939 260.317C686.975 249.799 699.158 241.037 707.328 234.906C711.413 231.841 714.495 229.433 716.555 227.793C717.584 226.973 718.358 226.345 718.874 225.923C718.985 225.832 719.084 225.751 719.171 225.679C719.286 225.584 719.381 225.506 719.454 225.445C719.518 225.392 719.566 225.351 719.598 225.325L719.633 225.295L719.642 225.288C719.642 225.288 719.643 225.287 719.661 225.308C719.67 225.318 719.682 225.332 719.7 225.354C719.734 225.394 719.788 225.457 719.874 225.56L720.228 225.979ZM720.615 327.329C720.615 327.329 720.615 327.329 720.615 327.327C720.614 327.325 720.613 327.321 720.61 327.313C720.603 327.298 720.588 327.267 720.558 327.204C720.507 327.095 720.41 326.891 720.228 326.51C720.051 326.14 719.954 325.939 719.901 325.828C719.876 325.776 719.86 325.745 719.851 325.725C719.841 325.706 719.838 325.698 719.836 325.696C719.835 325.694 719.834 325.694 719.834 325.694L719.826 325.698L719.79 325.716L719.646 325.784C719.517 325.844 719.324 325.935 719.066 326.055C718.55 326.295 717.775 326.653 716.745 327.12C714.685 328.051 711.602 329.421 707.516 331.164C699.344 334.651 687.159 339.634 671.119 345.614C639.04 357.577 591.542 373.53 529.889 389.484C406.584 421.392 226.661 453.306 0.22998 453.306V455.117C226.832 455.117 406.908 423.18 530.343 391.237C592.061 375.267 639.618 359.294 671.752 347.312C687.819 341.321 700.03 336.328 708.227 332.831C712.326 331.082 715.421 329.707 717.492 328.77C718.528 328.301 719.308 327.94 719.83 327.697C720.091 327.576 720.287 327.484 720.419 327.422L720.567 327.351L720.605 327.333L720.615 327.329ZM720.228 407.116C720.351 407.763 720.384 407.94 720.391 407.988C720.394 408.006 720.393 408.006 720.393 408.006L720.384 408.008L720.347 408.015L720.199 408.043C720.068 408.068 719.873 408.104 719.613 408.152L719.369 408.197L719.069 408.253C718.903 408.282 718.722 408.316 718.525 408.351C718.162 408.417 717.747 408.493 717.279 408.577C715.21 408.949 712.118 409.494 708.023 410.188C699.832 411.576 687.628 413.558 671.568 415.936C639.449 420.693 591.908 427.035 530.209 433.376C406.81 446.059 226.78 458.74 0.22998 458.74V456.929C226.713 456.929 406.681 444.251 530.023 431.574C591.695 425.236 639.209 418.898 671.303 414.145C687.35 411.768 699.542 409.789 707.72 408.402C711.81 407.709 714.896 407.165 716.959 406.794C717.99 406.609 718.766 406.467 719.283 406.371C719.542 406.323 719.736 406.287 719.866 406.263L720.011 406.236L720.047 406.228L720.056 406.227C720.056 406.227 720.057 406.227 720.061 406.244C720.064 406.261 720.071 406.294 720.083 406.358L720.111 406.501C720.136 406.632 720.173 406.828 720.228 407.116ZM720.218 456.023C720.22 456.023 720.221 456.023 720.228 456.929C720.234 457.834 720.233 457.834 720.231 457.834H720.222H720.207L720.186 457.835H720.158H720.125H720.085L720.039 457.836H719.987L719.93 457.837H719.866L719.796 457.838H719.719L719.637 457.839L719.549 457.84L719.455 457.841H719.354L719.248 457.841L719.136 457.842L719.017 457.843L718.893 457.844L718.762 457.845L718.626 457.847L718.483 457.848L718.334 457.849L718.18 457.85L718.019 457.851L717.852 457.852L717.68 457.853L717.501 457.855L717.316 457.856L717.126 457.858L716.929 457.86L716.726 457.861L716.518 457.862L716.303 457.864L716.083 457.866L715.856 457.868L715.623 457.87L715.385 457.871L715.14 457.873L714.89 457.875L714.633 457.877L714.371 457.879L714.103 457.88L713.828 457.882L713.548 457.885L713.262 457.887L712.97 457.89L712.672 457.891L712.368 457.894L712.058 457.896L711.742 457.899L711.421 457.901L711.093 457.903L710.759 457.906L710.42 457.909L710.074 457.911L709.723 457.914L709.366 457.917L709.003 457.919L708.634 457.922L708.259 457.925L707.879 457.928L707.492 457.93L707.099 457.934L706.701 457.937L706.297 457.939L705.887 457.943L705.471 457.946L705.049 457.949L704.621 457.952L704.188 457.956L703.749 457.959L703.303 457.962L702.852 457.966L702.396 457.969L701.933 457.973L701.464 457.976L700.99 457.979L700.51 457.983L700.024 457.987L699.532 457.991L699.034 457.995L698.531 457.998L698.022 458.002L697.507 458.006L696.986 458.01L696.459 458.014L695.927 458.018L695.389 458.022L694.845 458.026L694.295 458.03L693.74 458.034L693.178 458.039L692.611 458.043L692.038 458.047L691.46 458.052L690.876 458.056L690.286 458.061L689.69 458.065L689.088 458.07L688.481 458.074L687.868 458.079L687.249 458.083L686.624 458.088L685.994 458.092L685.358 458.098L684.717 458.102L684.069 458.108L683.416 458.112L682.757 458.117L682.093 458.122L681.422 458.128L680.747 458.132L680.065 458.138L679.378 458.143L678.685 458.148L677.986 458.153L677.282 458.159L676.572 458.164L675.856 458.169L675.135 458.175L674.407 458.18L673.675 458.186L672.936 458.191L672.192 458.197L671.443 458.203L670.687 458.208L669.926 458.214L669.16 458.22L668.387 458.226L667.61 458.232L666.826 458.237L666.037 458.244L665.242 458.249L664.442 458.255L663.636 458.262L662.824 458.268L662.007 458.273L661.184 458.28L660.356 458.286L659.522 458.293L658.682 458.299L657.837 458.305L656.986 458.312L656.13 458.318L655.268 458.325L654.4 458.331L653.527 458.338L652.649 458.344L651.765 458.351L650.875 458.358L649.979 458.365L649.078 458.371L648.172 458.379L647.26 458.385L646.343 458.392L645.42 458.399L644.491 458.406L643.557 458.413L642.617 458.42L641.672 458.427L640.721 458.435L639.765 458.442L638.803 458.449L637.836 458.456L636.863 458.464L635.885 458.471L634.901 458.478L633.912 458.485L632.917 458.494L631.917 458.501L630.911 458.508L629.9 458.516L628.884 458.523L627.861 458.532L626.833 458.539L625.801 458.547L624.762 458.555L623.718 458.562L622.668 458.571L621.614 458.579L620.554 458.587L619.488 458.595L618.416 458.603L617.339 458.611L616.257 458.62L615.17 458.628L614.077 458.636L612.979 458.644L611.875 458.652L610.765 458.66L609.651 458.669L608.531 458.677L607.405 458.686L606.274 458.695L605.138 458.703L603.996 458.712L602.85 458.72L601.697 458.729L600.539 458.738L599.376 458.746L598.207 458.755L597.034 458.764L595.854 458.773L594.67 458.783L593.48 458.791L592.284 458.8L591.083 458.809L589.877 458.818L588.666 458.828L587.449 458.837L586.227 458.846L584.999 458.855L583.767 458.864L582.529 458.874L581.285 458.883L580.036 458.892L578.782 458.902L577.523 458.911L576.258 458.921L574.988 458.931L573.713 458.94L572.432 458.95L571.146 458.96L569.855 458.969L568.558 458.979L567.257 458.989L565.95 458.999L564.637 459.009L563.32 459.019L561.996 459.029L560.669 459.039L559.335 459.049L557.996 459.059L556.652 459.069L555.303 459.08L553.949 459.09L552.589 459.1L551.224 459.11L549.853 459.12L548.479 459.13L547.097 459.141L545.712 459.151L544.321 459.162L542.924 459.173L541.523 459.183L540.116 459.194L538.704 459.205L537.286 459.215L535.865 459.226L534.437 459.236L533.005 459.247L531.566 459.258L530.123 459.269L528.675 459.28L527.221 459.292L525.762 459.302L524.298 459.313L522.829 459.324L521.355 459.335L519.876 459.347L518.392 459.358L516.902 459.369L515.407 459.38L513.907 459.392L512.402 459.403L510.891 459.415L509.376 459.426L507.855 459.437L506.33 459.449L504.799 459.46L503.264 459.472L501.722 459.484L500.176 459.495L498.625 459.507L497.068 459.519L495.507 459.531L493.94 459.542L492.369 459.554L490.792 459.566L489.21 459.578L487.623 459.59L486.031 459.602L484.434 459.614L482.832 459.626L481.225 459.638L479.612 459.65L477.995 459.663L476.372 459.675L474.745 459.687L473.113 459.699L471.474 459.712L469.832 459.724L468.184 459.737L466.531 459.749L464.874 459.762L463.211 459.774L461.543 459.787L459.87 459.8L458.192 459.812L456.509 459.825L454.821 459.838L453.128 459.85L451.43 459.863L449.728 459.876L448.02 459.889L446.307 459.902L444.589 459.915L442.865 459.928L441.137 459.941L439.405 459.954L437.667 459.967L435.924 459.98L434.177 459.993L432.423 460.007L430.666 460.02L428.903 460.033L427.135 460.047L425.363 460.06L423.585 460.073L421.803 460.087L420.015 460.1L418.222 460.114L416.426 460.127L414.623 460.141L412.816 460.155L411.003 460.168L409.187 460.182L407.365 460.195L405.538 460.21L403.707 460.223L401.87 460.237L400.028 460.252L398.181 460.265L396.33 460.279L394.473 460.293L392.612 460.307L390.747 460.321L388.876 460.335L387 460.349L385.119 460.364L383.233 460.377L381.343 460.392L379.448 460.406L377.548 460.421L375.643 460.435L373.733 460.45L371.818 460.464L369.898 460.479L367.974 460.493L366.045 460.508L364.111 460.522L362.172 460.537L360.229 460.551L358.28 460.566L356.326 460.581L354.368 460.596L352.406 460.61L350.438 460.626L348.465 460.64L346.488 460.655L344.506 460.67L342.519 460.685L340.527 460.7L338.53 460.715L336.529 460.731L334.523 460.745L332.512 460.761L330.496 460.776L328.475 460.791L326.45 460.807L324.421 460.822L322.386 460.838L320.346 460.853L318.302 460.868L316.253 460.884L314.2 460.899L312.141 460.914L310.078 460.93L308.009 460.945L305.937 460.962L303.86 460.977L301.778 460.992L299.691 461.009L297.599 461.024L295.503 461.04L293.402 461.056L291.296 461.072L289.186 461.087L287.071 461.104L284.951 461.12L282.827 461.135L280.698 461.152L278.564 461.168L276.426 461.184L274.283 461.2L272.135 461.216L269.982 461.232L267.824 461.249L265.663 461.265L263.496 461.281L261.326 461.298L259.15 461.314L256.969 461.331L254.784 461.347L252.594 461.364L250.401 461.38L248.201 461.397L245.997 461.414L243.789 461.431L241.577 461.447L239.359 461.463L237.137 461.481L234.91 461.497L232.679 461.514L230.444 461.531L228.203 461.548L225.958 461.565L223.708 461.582L221.454 461.599L219.195 461.615L216.931 461.633L214.663 461.65L212.391 461.667L210.113 461.684L207.832 461.702L205.546 461.719L203.255 461.736L200.96 461.753L198.659 461.771L196.355 461.788L194.046 461.806L191.732 461.823L189.415 461.841L187.091 461.858L184.765 461.875L182.433 461.894L180.096 461.911L177.756 461.929L175.41 461.946L173.061 461.964L170.706 461.982L168.348 462L165.984 462.018L163.617 462.036L161.244 462.053L158.868 462.071L156.487 462.089L154.1 462.107L151.71 462.125L149.316 462.143L146.917 462.162L144.513 462.18L142.105 462.198L139.692 462.216L137.275 462.234L134.854 462.252L132.428 462.271L129.997 462.289L127.563 462.307L125.124 462.326L122.679 462.345L120.231 462.363L117.779 462.382L115.322 462.4L112.861 462.419L110.395 462.437L107.924 462.456L105.45 462.474L102.971 462.493L100.487 462.512L97.9993 462.53L95.5078 462.549L93.0109 462.568L90.5095 462.587L88.0045 462.606L85.4949 462.625L82.9808 462.644L80.4622 462.663L77.939 462.682L75.4113 462.701L72.88 462.72L70.3442 462.739L67.8037 462.758L65.2589 462.777L62.7094 462.797L60.1564 462.816L57.5988 462.835L55.0367 462.854L52.4701 462.874L49.8998 462.893L47.3241 462.913L44.7448 462.932L42.161 462.952L39.5735 462.971L36.9806 462.991L34.3841 463.011L31.7831 463.03L29.1783 463.05L26.5683 463.07L23.9545 463.089L21.3363 463.109L18.7135 463.129L16.0872 463.149L13.4562 463.169L10.8207 463.189L8.18164 463.209L5.53711 463.229L2.88892 463.248L0.237183 463.268L0.223572 461.457L2.87537 461.437L5.52356 461.417L8.16803 461.397L10.8071 461.377L13.4426 461.357L16.0735 461.337L18.6999 461.318L21.3227 461.298L23.941 461.279L26.5547 461.259L29.1639 461.239L31.7695 461.219L34.3705 461.2L36.967 461.18L39.5599 461.16L42.1474 461.141L44.7313 461.121L47.3105 461.102L49.8862 461.082L52.4565 461.063L55.0231 461.044L57.5853 461.024L60.1428 461.005L62.6959 460.986L65.2453 460.966L67.7902 460.947L70.3306 460.928L72.8664 460.909L75.3977 460.89L77.9254 460.871L80.4485 460.852L82.9672 460.833L85.4813 460.814L87.9908 460.795L90.4959 460.776L92.9974 460.757L95.4942 460.738L97.9857 460.719L100.474 460.701L102.957 460.682L105.437 460.663L107.911 460.645L110.381 460.626L112.847 460.607L115.308 460.588L117.765 460.57L120.218 460.551L122.666 460.533L125.11 460.514L127.549 460.496L129.983 460.478L132.414 460.46L134.841 460.441L137.261 460.423L139.679 460.405L142.091 460.386L144.499 460.368L146.903 460.35L149.302 460.332L151.697 460.314L154.087 460.296L156.473 460.278L158.854 460.26L161.23 460.242L163.603 460.224L165.971 460.206L168.334 460.188L170.693 460.171L173.047 460.153L175.397 460.135L177.742 460.117L180.083 460.099L182.419 460.082L184.75 460.064L187.078 460.047L189.401 460.03L191.718 460.012L194.032 459.994L196.341 459.977L198.646 459.96L200.945 459.942L203.241 459.925L205.532 459.907L207.818 459.89L210.1 459.873L212.377 459.856L214.65 459.839L216.918 459.821L219.181 459.805L221.44 459.788L223.695 459.771L225.944 459.753L228.189 459.736L230.429 459.72L232.665 459.703L234.897 459.686L237.124 459.669L239.345 459.652L241.563 459.636L243.776 459.619L245.984 459.602L248.187 459.586L250.386 459.569L252.58 459.552L254.77 459.536L256.956 459.52L259.136 459.503L261.312 459.486L263.483 459.47L265.649 459.454L267.811 459.437L269.968 459.421L272.121 459.405L274.268 459.388L276.412 459.373L278.55 459.357L280.684 459.34L282.813 459.324L284.938 459.309L287.057 459.292L289.173 459.276L291.283 459.261L293.388 459.244L295.49 459.229L297.585 459.213L299.677 459.197L301.764 459.181L303.846 459.166L305.924 459.15L307.996 459.134L310.064 459.119L312.127 459.103L314.186 459.088L316.239 459.072L318.289 459.057L320.333 459.042L322.372 459.026L324.407 459.011L326.437 458.995L328.462 458.98L330.482 458.965L332.498 458.949L334.509 458.934L336.515 458.919L338.516 458.904L340.513 458.888L342.505 458.874L344.492 458.859L346.474 458.844L348.452 458.829L350.424 458.814L352.392 458.799L354.355 458.784L356.313 458.77L358.266 458.754L360.215 458.74L362.159 458.725L364.098 458.711L366.031 458.696L367.96 458.682L369.885 458.668L371.805 458.653L373.719 458.639L375.629 458.624L377.534 458.61L379.434 458.595L381.33 458.581L383.22 458.567L385.105 458.552L386.986 458.538L388.862 458.524L390.733 458.51L392.599 458.495L394.46 458.482L396.316 458.467L398.168 458.454L400.014 458.44L401.855 458.426L403.692 458.412L405.524 458.398L407.351 458.384L409.173 458.37L410.99 458.357L412.802 458.343L414.61 458.33L416.412 458.316L418.209 458.302L420.001 458.289L421.789 458.275L423.571 458.262L425.349 458.248L427.121 458.235L428.889 458.222L430.652 458.208L432.41 458.196L434.163 458.182L435.911 458.168L437.653 458.156L439.391 458.142L441.124 458.13L442.852 458.117L444.575 458.103L446.293 458.091L448.006 458.078L449.714 458.064L451.417 458.052L453.115 458.039L454.807 458.026L456.496 458.014L458.178 458.001L459.856 457.988L461.529 457.976L463.197 457.963L464.86 457.95L466.518 457.938L468.17 457.926L469.818 457.913L471.461 457.9L473.098 457.889L474.731 457.876L476.358 457.863L477.981 457.851L479.599 457.839L481.211 457.827L482.818 457.815L484.421 457.803L486.017 457.791L487.609 457.779L489.196 457.766L490.778 457.755L492.355 457.743L493.926 457.731L495.493 457.719L497.055 457.707L498.611 457.696L500.163 457.684L501.709 457.672L503.249 457.66L504.785 457.649L506.317 457.638L507.842 457.626L509.362 457.614L510.878 457.603L512.388 457.592L513.893 457.581L515.393 457.569L516.888 457.558L518.378 457.546L519.863 457.535L521.342 457.525L522.816 457.513L524.285 457.502L525.748 457.491L527.207 457.48L528.661 457.469L530.109 457.458L531.553 457.447L532.99 457.436L534.423 457.425L535.851 457.415L537.273 457.404L538.69 457.393L540.102 457.382L541.509 457.371L542.911 457.361L544.307 457.351L545.698 457.341L547.084 457.33L548.465 457.319L549.84 457.309L551.21 457.299L552.575 457.288L553.935 457.278L555.289 457.268L556.639 457.257L557.983 457.247L559.321 457.237L560.654 457.227L561.983 457.217L563.306 457.208L564.624 457.198L565.936 457.188L567.243 457.178L568.544 457.168L569.841 457.158L571.133 457.149L572.419 457.139L573.699 457.129L574.975 457.12L576.244 457.11L577.509 457.1L578.768 457.091L580.023 457.082L581.272 457.072L582.515 457.063L583.753 457.053L584.986 457.044L586.213 457.035L587.435 457.025L588.652 457.016L589.864 457.006L591.07 456.997L592.271 456.988L593.466 456.979L594.656 456.971L595.841 456.962L597.02 456.953L598.194 456.944L599.362 456.935L600.526 456.927L601.683 456.918L602.836 456.909L603.983 456.901L605.125 456.891L606.26 456.883L607.392 456.874L608.517 456.866L609.637 456.858L610.752 456.849L611.861 456.841L612.965 456.833L614.064 456.824L615.156 456.816L616.244 456.808L617.326 456.8L618.403 456.792L619.474 456.784L620.54 456.776L621.6 456.767L622.655 456.759L623.704 456.751L624.749 456.744L625.787 456.736L626.82 456.728L627.848 456.72L628.87 456.712L629.886 456.705L630.898 456.698L631.903 456.689L632.904 456.682L633.898 456.675L634.888 456.667L635.871 456.66L636.85 456.652L637.822 456.645L638.79 456.638L639.751 456.631L640.708 456.623L641.658 456.616L642.603 456.609L643.543 456.602L644.477 456.594L645.406 456.588L646.329 456.581L647.246 456.574L648.158 456.567L649.065 456.56L649.966 456.554L650.861 456.546L651.751 456.54L652.635 456.533L653.514 456.526L654.387 456.52L655.254 456.514L656.116 456.507L656.973 456.5L657.823 456.494L658.669 456.488L659.508 456.481L660.342 456.475L661.171 456.469L661.993 456.462L662.811 456.457L663.622 456.45L664.428 456.444L665.229 456.438L666.023 456.432L666.812 456.426L667.596 456.42L668.374 456.414L669.146 456.409L669.913 456.402L670.674 456.397L671.429 456.392L672.179 456.386L672.923 456.38L673.661 456.374L674.394 456.369L675.121 456.363L675.842 456.358L676.558 456.353L677.268 456.347L677.972 456.342L678.671 456.336L679.364 456.332L680.051 456.326L680.733 456.321L681.409 456.316L682.079 456.311L682.744 456.305L683.402 456.301L684.056 456.296L684.703 456.291L685.345 456.286L685.981 456.282L686.611 456.276L687.235 456.272L687.854 456.267L688.467 456.263L689.074 456.258L689.676 456.254L690.272 456.249L690.862 456.245L691.446 456.24L692.025 456.236L692.598 456.231L693.165 456.228L693.726 456.223L694.281 456.219L694.831 456.215L695.375 456.21L695.913 456.207L696.446 456.202L696.972 456.199L697.493 456.195L698.008 456.19L698.517 456.187L699.021 456.183L699.518 456.18L700.01 456.176L700.496 456.172L700.976 456.169L701.451 456.165L701.919 456.161L702.382 456.158L702.839 456.154L703.29 456.151L703.735 456.148L704.174 456.144L704.608 456.141L705.036 456.138L705.457 456.134L705.873 456.132L706.283 456.128L706.688 456.125L707.086 456.122L707.478 456.119L707.865 456.116L708.246 456.113L708.62 456.111L708.989 456.108L709.352 456.105L709.71 456.103L710.061 456.1L710.406 456.097L710.746 456.094L711.079 456.092L711.407 456.09L711.729 456.087L712.044 456.084L712.354 456.083L712.658 456.08L712.956 456.078L713.248 456.075L713.535 456.074L713.815 456.072L714.089 456.069L714.357 456.067L714.62 456.065L714.876 456.064L715.127 456.062L715.371 456.06L715.61 456.058L715.842 456.056L716.069 456.055L716.289 456.053L716.504 456.051L716.713 456.049L716.915 456.048L717.112 456.046L717.303 456.046L717.487 456.044L717.666 456.042L717.839 456.041L718.005 456.04L718.166 456.038L718.321 456.037L718.469 456.036L718.612 456.036L718.749 456.034L718.879 456.033L719.004 456.032L719.122 456.031L719.234 456.03H719.341L719.441 456.029L719.535 456.028L719.624 456.027L719.706 456.027H719.782L719.852 456.026H719.916L719.974 456.025H720.026L720.071 456.024H720.111H720.144H720.172L720.193 456.023H720.209H720.218ZM720.228 699.652C720.811 698.959 720.809 698.958 720.807 698.957L720.797 698.948L720.76 698.917L720.751 698.909L720.671 698.842L720.611 698.793L720.5 698.7L720.374 698.596C720.274 698.514 720.156 698.418 720.022 698.307C719.5 697.88 718.719 697.247 717.683 696.422C715.611 694.77 712.515 692.353 708.415 689.277C700.216 683.124 688.003 674.339 671.932 663.8C639.792 642.72 592.224 614.621 530.491 586.523C407.026 530.327 226.899 474.137 0.22998 474.137V475.948C226.594 475.948 406.466 532.062 529.741 588.171C591.379 616.227 638.866 644.279 670.939 665.314C686.975 675.832 699.158 684.594 707.328 690.726C711.413 693.79 714.495 696.199 716.555 697.838C717.584 698.659 718.358 699.286 718.874 699.708C719.132 699.92 719.325 700.08 719.454 700.186C719.506 700.229 719.547 700.263 719.577 700.289L719.598 700.306L719.633 700.336L719.642 700.343C719.642 700.343 719.643 700.344 719.687 700.293C719.747 700.223 719.889 700.054 720.228 699.652ZM720.615 597.397C720.617 597.398 720.618 597.398 720.228 598.215C719.837 599.032 719.836 599.032 719.834 599.031L719.826 599.027L719.79 599.011L719.646 598.942C719.517 598.881 719.324 598.791 719.066 598.67C718.854 598.571 718.599 598.454 718.3 598.316C718.117 598.232 717.919 598.14 717.704 598.042C717.414 597.91 717.094 597.764 716.745 597.607C714.685 596.674 711.602 595.305 707.516 593.561C699.344 590.075 687.159 585.092 671.119 579.111C639.04 567.149 591.542 551.196 529.889 535.241C406.584 503.333 226.661 471.42 0.22998 471.42V469.608C226.832 469.608 406.908 501.545 530.343 533.488C592.061 549.459 639.618 565.431 671.752 577.414C687.819 583.405 700.03 588.398 708.227 591.896C712.326 593.643 715.421 595.018 717.492 595.957C718.528 596.425 719.308 596.785 719.83 597.028C719.977 597.097 720.103 597.156 720.209 597.206C720.292 597.244 720.361 597.277 720.419 597.304L720.567 597.374L720.605 597.392L720.615 597.397ZM720.228 516.704C720.397 515.814 720.396 515.814 720.393 515.814L720.384 515.812L720.347 515.804L720.199 515.777C720.068 515.753 719.873 515.716 719.613 515.668C719.092 515.572 718.314 515.429 717.279 515.243C715.21 514.871 712.118 514.325 708.023 513.632C699.832 512.244 687.628 510.262 671.568 507.883C639.449 503.127 591.908 496.785 530.209 490.443C406.81 477.761 226.78 465.08 0.22998 465.08V466.891C226.713 466.891 406.681 479.569 530.023 492.246C591.695 498.584 639.209 504.922 671.303 509.675C687.35 512.051 699.542 514.032 707.72 515.418C711.81 516.111 714.896 516.655 716.959 517.025C717.582 517.138 718.111 517.234 718.547 517.313C718.833 517.366 719.078 517.411 719.283 517.449C719.542 517.497 719.736 517.533 719.866 517.557L720.011 517.585L720.047 517.591L720.056 517.593C720.058 517.593 720.059 517.594 720.228 516.704Z" fill="url(#paint0_linear_65_2087)"/>
<defs>
<linearGradient id="paint0_linear_65_2087" x1="11.0968" y1="340.987" x2="707.023" y2="340.987" gradientUnits="userSpaceOnUse">
<stop offset="0.0182341" stop-color="#CE1126" stop-opacity="0"/>
<stop offset="0.127609" stop-color="#CE1126"/>
<stop offset="0.563305" stop-color="#CE1126" stop-opacity="0.65"/>
<stop offset="0.943305" stop-color="#CE1126" stop-opacity="0"/>
</linearGradient>
</defs>
</svg>
