<svg width="1920" height="456" viewBox="0 0 1920 456" fill="none" xmlns="http://www.w3.org/2000/svg">
<path d="M237.189 79H189.189V259H156.789V79H108.789V49H237.189V79ZM249.88 126.4H280.48V201.7L371.68 114.4V259H341.08V181.9L249.88 269.2V126.4ZM409.062 126.4H524.262V259H493.662V154H439.662V259H409.062V126.4ZM575.005 142.9C588.605 129.5 605.505 122.8 625.705 122.8C645.905 122.8 662.705 129.5 676.105 142.9C689.705 156.1 696.505 172.8 696.505 193C696.505 213.2 689.705 230 676.105 243.4C662.705 256.6 645.905 263.2 625.705 263.2C605.505 263.2 588.605 256.6 575.005 243.4C561.605 230 554.905 213.2 554.905 193C554.905 172.8 561.605 156.1 575.005 142.9ZM598.105 225.1C605.905 232.1 615.105 235.6 625.705 235.6C636.305 235.6 645.405 232.1 653.005 225.1C660.805 217.9 664.705 207.3 664.705 193.3C664.705 178.9 660.805 168.2 653.005 161.2C645.405 154 636.305 150.4 625.705 150.4C615.105 150.4 605.905 154 598.105 161.2C590.505 168.2 586.705 178.9 586.705 193.3C586.705 207.3 590.505 217.9 598.105 225.1ZM727.133 259V126.4H808.133V154H757.733V259H727.133ZM859.786 126.4V140.8C869.786 128.8 883.186 122.8 899.986 122.8C917.786 122.8 932.886 129.2 945.286 142C957.886 154.8 964.186 171.6 964.186 192.4C964.186 213.2 957.686 230.2 944.686 243.4C931.686 256.6 916.886 263.2 900.286 263.2C896.886 263.2 893.286 262.8 889.486 262C885.686 261.2 880.786 259.3 874.786 256.3C868.986 253.1 863.986 248.9 859.786 243.7V322H829.186V126.4H859.786ZM895.486 150.4C885.286 150.4 876.486 154.2 869.086 161.8C861.686 169.4 857.986 179.9 857.986 193.3C857.986 205.3 861.286 215.4 867.886 223.6C874.486 231.6 883.686 235.6 895.486 235.6C906.686 235.6 915.586 231.5 922.186 223.3C928.986 215.1 932.386 204.9 932.386 192.7C932.386 179.5 928.686 169.2 921.286 161.8C914.086 154.2 905.486 150.4 895.486 150.4ZM1092.61 126.4H1123.21V259H1092.61V245.2C1082.41 257.2 1069.01 263.2 1052.41 263.2C1033.01 263.2 1017.41 256.2 1005.61 242.2C994.013 228.2 988.213 211.7 988.213 192.7C988.213 173.7 994.013 157.3 1005.61 143.5C1017.21 129.7 1032.91 122.8 1052.71 122.8C1069.91 122.8 1083.21 129.2 1092.61 142V126.4ZM1057.21 150.4C1046.21 150.4 1037.21 154.5 1030.21 162.7C1023.41 170.9 1020.01 181.1 1020.01 193.3C1020.01 205.1 1023.31 215.1 1029.91 223.3C1036.71 231.5 1045.81 235.6 1057.21 235.6C1068.61 235.6 1077.61 231.6 1084.21 223.6C1091.01 215.6 1094.41 205.4 1094.41 193C1094.41 179.4 1090.81 168.9 1083.61 161.5C1076.41 154.1 1067.61 150.4 1057.21 150.4ZM1231.24 322V261.1C1208.84 261.5 1190.64 255.8 1176.64 244C1161.84 231.6 1154.44 214.5 1154.44 192.7C1154.44 171.3 1161.74 154.3 1176.34 141.7C1189.94 130.1 1208.24 124.3 1231.24 124.3V49H1261.84V124.3C1284.84 124.3 1303.14 130.1 1316.74 141.7C1331.34 154.3 1338.64 171.3 1338.64 192.7C1338.64 214.5 1331.24 231.6 1316.44 244C1302.44 255.8 1284.24 261.5 1261.84 261.1V322H1231.24ZM1231.24 233.5V151.9C1219.04 151.9 1209.54 154.2 1202.74 158.8C1191.74 165.8 1186.24 177.1 1186.24 192.7C1186.24 207.1 1191.44 218.1 1201.84 225.7C1210.04 231.3 1219.84 233.9 1231.24 233.5ZM1261.84 151.9V233.5C1273.24 233.9 1283.04 231.3 1291.24 225.7C1301.64 218.1 1306.84 207.1 1306.84 192.7C1306.84 177.1 1301.34 165.8 1290.34 158.8C1283.34 154.2 1273.84 151.9 1261.84 151.9ZM1370.01 126.4H1400.61V201.7L1491.81 114.4V259H1461.21V181.9L1370.01 269.2V126.4ZM1529.2 126.4H1559.8V175L1604.5 126.4H1644.7L1587.1 184.3L1648 259H1609L1559.8 197.8V259H1529.2V126.4ZM1765.08 126.4H1795.68V259H1765.08V245.2C1754.88 257.2 1741.48 263.2 1724.88 263.2C1705.48 263.2 1689.88 256.2 1678.08 242.2C1666.48 228.2 1660.68 211.7 1660.68 192.7C1660.68 173.7 1666.48 157.3 1678.08 143.5C1689.68 129.7 1705.38 122.8 1725.18 122.8C1742.38 122.8 1755.68 129.2 1765.08 142V126.4ZM1729.68 150.4C1718.68 150.4 1709.68 154.5 1702.68 162.7C1695.88 170.9 1692.48 181.1 1692.48 193.3C1692.48 205.1 1695.78 215.1 1702.38 223.3C1709.18 231.5 1718.28 235.6 1729.68 235.6C1741.08 235.6 1750.08 231.6 1756.68 223.6C1763.48 215.6 1766.88 205.4 1766.88 193C1766.88 179.4 1763.28 168.9 1756.08 161.5C1748.88 154.1 1740.08 150.4 1729.68 150.4Z" fill="black"/>
<path d="M456.538 343H465.018C467.258 343 468.858 343.027 469.818 343.08C470.831 343.133 472.244 343.4 474.058 343.88C475.871 344.307 477.471 345 478.858 345.96C483.071 348.893 485.178 353.107 485.178 358.6C485.178 362.867 483.524 366.28 480.218 368.84C483.471 369.853 485.898 371.64 487.498 374.2C489.151 376.707 489.978 379.427 489.978 382.36C489.978 387.747 488.111 391.987 484.378 395.08C482.884 396.307 481.098 397.24 479.018 397.88C476.938 398.467 475.311 398.813 474.138 398.92C473.018 398.973 471.444 399 469.418 399H456.538V343ZM465.178 351V367.08H467.738C473.818 367.08 476.858 364.333 476.858 358.84C476.858 353.613 473.924 351 468.058 351H465.178ZM465.178 374.12V391H470.298C474.404 391 477.258 390.173 478.858 388.52C480.511 386.813 481.338 384.813 481.338 382.52C481.338 380.173 480.511 378.2 478.858 376.6C477.258 374.947 474.458 374.12 470.458 374.12H465.178ZM524.949 363.64H533.109V399H524.949V395.32C522.229 398.52 518.656 400.12 514.229 400.12C509.056 400.12 504.896 398.253 501.749 394.52C498.656 390.787 497.109 386.387 497.109 381.32C497.109 376.253 498.656 371.88 501.749 368.2C504.843 364.52 509.029 362.68 514.309 362.68C518.896 362.68 522.443 364.387 524.949 367.8V363.64ZM515.509 370.04C512.576 370.04 510.176 371.133 508.309 373.32C506.496 375.507 505.589 378.227 505.589 381.48C505.589 384.627 506.469 387.293 508.229 389.48C510.043 391.667 512.469 392.76 515.509 392.76C518.549 392.76 520.949 391.693 522.709 389.56C524.523 387.427 525.429 384.707 525.429 381.4C525.429 377.773 524.469 374.973 522.549 373C520.629 371.027 518.283 370.04 515.509 370.04ZM543.11 399V363.64H551.27V391.64H563.11V363.64H571.27V391.64H583.11V363.64H591.27V399H543.11ZM618.989 415.8L631.309 392.44L615.549 363.64H625.469L635.869 383.56L645.789 363.64H655.069L628.269 415.8H618.989ZM688.118 365.24V375.96C686.998 374.147 685.504 372.707 683.638 371.64C681.824 370.573 679.904 370.04 677.878 370.04C675.051 370.04 672.571 371.053 670.438 373.08C668.358 375.107 667.318 377.88 667.318 381.4C667.318 384.6 668.251 387.293 670.118 389.48C672.038 391.667 674.598 392.76 677.798 392.76C682.011 392.76 685.451 390.76 688.118 386.76V397.48C685.078 399.24 681.824 400.12 678.358 400.12C672.278 400.12 667.451 398.307 663.878 394.68C660.518 391.32 658.838 386.947 658.838 381.56C658.838 375.8 660.758 371.107 664.598 367.48C668.011 364.28 672.438 362.68 677.878 362.68C681.878 362.68 685.291 363.533 688.118 365.24ZM695.776 363.64H726.496V399H718.336V371H703.936V399H695.776V363.64ZM761.941 385.96L768.821 389.8C767.487 392.253 765.941 394.253 764.181 395.8C760.927 398.68 756.821 400.12 751.861 400.12C747.327 400.12 743.327 398.52 739.861 395.32C736.447 392.12 734.741 387.533 734.741 381.56C734.741 375.853 736.287 371.293 739.381 367.88C742.474 364.413 746.607 362.68 751.781 362.68C757.807 362.68 762.287 364.84 765.221 369.16C767.407 372.413 768.501 376.707 768.501 382.04V383.32H743.221C743.274 386.307 744.261 388.627 746.181 390.28C748.154 391.933 750.341 392.76 752.741 392.76C754.821 392.76 756.687 392.12 758.341 390.84C759.834 389.72 761.034 388.093 761.941 385.96ZM743.701 376.6H760.101C759.621 374.573 758.634 372.973 757.141 371.8C755.701 370.627 753.967 370.04 751.941 370.04C749.967 370.04 748.234 370.653 746.741 371.88C745.247 373.053 744.234 374.627 743.701 376.6ZM793.149 385.8L782.669 399H772.589L788.189 379.88L775.629 363.64H785.389L793.149 373.96L801.069 363.64H811.149L798.109 379.88L813.229 399H803.309L793.149 385.8ZM837.504 363.64H851.344C854.917 363.64 857.61 364.333 859.424 365.72C861.557 367.427 862.624 369.693 862.624 372.52C862.624 375.773 861.237 378.067 858.464 379.4C860.437 379.827 862.037 380.627 863.264 381.8C865.077 383.453 865.984 385.72 865.984 388.6C865.984 391.96 864.704 394.653 862.144 396.68C860.117 398.227 857.397 399 853.984 399H837.504V363.64ZM845.664 377.4H849.904C851.344 377.4 852.437 377.16 853.184 376.68C854.25 375.987 854.784 375.027 854.784 373.8C854.784 372.627 854.304 371.72 853.344 371.08C852.65 370.6 851.45 370.36 849.744 370.36H845.664V377.4ZM845.664 392.28H851.824C853.69 392.28 855.13 391.933 856.144 391.24C857.264 390.387 857.824 389.347 857.824 388.12C857.824 386.84 857.29 385.827 856.224 385.08C855.37 384.44 853.984 384.12 852.064 384.12H845.664V392.28ZM893.016 363.64H901.176V376.6L913.096 363.64H923.816L908.456 379.08L924.696 399H914.296L901.176 382.68V399H893.016V363.64ZM955.993 363.64H964.153V399H955.993V395.32C953.273 398.52 949.7 400.12 945.273 400.12C940.1 400.12 935.94 398.253 932.793 394.52C929.7 390.787 928.153 386.387 928.153 381.32C928.153 376.253 929.7 371.88 932.793 368.2C935.886 364.52 940.073 362.68 945.353 362.68C949.94 362.68 953.486 364.387 955.993 367.8V363.64ZM946.553 370.04C943.62 370.04 941.22 371.133 939.353 373.32C937.54 375.507 936.633 378.227 936.633 381.48C936.633 384.627 937.513 387.293 939.273 389.48C941.086 391.667 943.513 392.76 946.553 392.76C949.593 392.76 951.993 391.693 953.753 389.56C955.566 387.427 956.473 384.707 956.473 381.4C956.473 377.773 955.513 374.973 953.593 373C951.673 371.027 949.326 370.04 946.553 370.04ZM991.274 363.64H999.434V376.76L1010.15 363.64H1020.07L1006.31 379.8L1021.35 399H1011.11L999.434 383.32V399H991.274V383.32L979.594 399H969.354L984.394 379.8L970.634 363.64H980.554L991.274 376.76V363.64ZM1029.96 363.64H1056.52V391.64H1061.8V409.08H1054.28V399H1029.48V409.08H1021.96V391.64C1024.89 391.373 1027.08 389.827 1028.52 387C1029.48 385.027 1029.96 381.907 1029.96 377.64V363.64ZM1048.36 391.64V371H1037.8V380.76C1037.8 385.88 1036.41 389.507 1033.64 391.64H1048.36ZM1071.08 368.04C1074.71 364.467 1079.21 362.68 1084.6 362.68C1089.99 362.68 1094.47 364.467 1098.04 368.04C1101.67 371.56 1103.48 376.013 1103.48 381.4C1103.48 386.787 1101.67 391.267 1098.04 394.84C1094.47 398.36 1089.99 400.12 1084.6 400.12C1079.21 400.12 1074.71 398.36 1071.08 394.84C1067.51 391.267 1065.72 386.787 1065.72 381.4C1065.72 376.013 1067.51 371.56 1071.08 368.04ZM1077.24 389.96C1079.32 391.827 1081.77 392.76 1084.6 392.76C1087.43 392.76 1089.85 391.827 1091.88 389.96C1093.96 388.04 1095 385.213 1095 381.48C1095 377.64 1093.96 374.787 1091.88 372.92C1089.85 371 1087.43 370.04 1084.6 370.04C1081.77 370.04 1079.32 371 1077.24 372.92C1075.21 374.787 1074.2 377.64 1074.2 381.48C1074.2 385.213 1075.21 388.04 1077.24 389.96ZM1107.88 399L1116.44 360.44L1131.08 387.32L1145.72 360.44L1154.28 399H1145.96L1142.36 381.24L1131.08 401.72L1119.8 381.24L1116.2 399H1107.88ZM1179.26 363.64H1209.98V399H1201.82V371H1187.42V399H1179.26V363.64ZM1219.99 363.64H1228.15V383.72L1252.47 360.44V399H1244.31V378.44L1219.99 401.72V363.64ZM1262.51 363.64H1270.67V376.6L1282.59 363.64H1293.31L1277.95 379.08L1294.19 399H1283.79L1270.67 382.68V399H1262.51V363.64ZM1326.93 365.24V375.96C1325.81 374.147 1324.31 372.707 1322.45 371.64C1320.63 370.573 1318.71 370.04 1316.69 370.04C1313.86 370.04 1311.38 371.053 1309.25 373.08C1307.17 375.107 1306.13 377.88 1306.13 381.4C1306.13 384.6 1307.06 387.293 1308.93 389.48C1310.85 391.667 1313.41 392.76 1316.61 392.76C1320.82 392.76 1324.26 390.76 1326.93 386.76V397.48C1323.89 399.24 1320.63 400.12 1317.17 400.12C1311.09 400.12 1306.26 398.307 1302.69 394.68C1299.33 391.32 1297.65 386.947 1297.65 381.56C1297.65 375.8 1299.57 371.107 1303.41 367.48C1306.82 364.28 1311.25 362.68 1316.69 362.68C1320.69 362.68 1324.1 363.533 1326.93 365.24ZM1360.03 385.96L1366.91 389.8C1365.57 392.253 1364.03 394.253 1362.27 395.8C1359.01 398.68 1354.91 400.12 1349.95 400.12C1345.41 400.12 1341.41 398.52 1337.95 395.32C1334.53 392.12 1332.83 387.533 1332.83 381.56C1332.83 375.853 1334.37 371.293 1337.47 367.88C1340.56 364.413 1344.69 362.68 1349.87 362.68C1355.89 362.68 1360.37 364.84 1363.31 369.16C1365.49 372.413 1366.59 376.707 1366.59 382.04V383.32H1341.31C1341.36 386.307 1342.35 388.627 1344.27 390.28C1346.24 391.933 1348.43 392.76 1350.83 392.76C1352.91 392.76 1354.77 392.12 1356.43 390.84C1357.92 389.72 1359.12 388.093 1360.03 385.96ZM1341.79 376.6H1358.19C1357.71 374.573 1356.72 372.973 1355.23 371.8C1353.79 370.627 1352.05 370.04 1350.03 370.04C1348.05 370.04 1346.32 370.653 1344.83 371.88C1343.33 373.053 1342.32 374.627 1341.79 376.6ZM1404.43 363.64V399H1396.27V371H1385.71V385.24C1385.71 389.56 1384.62 392.947 1382.43 395.4C1380.19 397.907 1377.02 399.16 1372.91 399.16C1372.49 399.16 1371.79 399.107 1370.83 399V391.64C1371.47 391.747 1371.98 391.8 1372.35 391.8C1374.17 391.8 1375.61 391.213 1376.67 390.04C1377.47 389.133 1377.87 387.587 1377.87 385.4V363.64H1404.43ZM1439.91 385.96L1446.79 389.8C1445.46 392.253 1443.91 394.253 1442.15 395.8C1438.9 398.68 1434.79 400.12 1429.83 400.12C1425.3 400.12 1421.3 398.52 1417.83 395.32C1414.42 392.12 1412.71 387.533 1412.71 381.56C1412.71 375.853 1414.26 371.293 1417.35 367.88C1420.45 364.413 1424.58 362.68 1429.75 362.68C1435.78 362.68 1440.26 364.84 1443.19 369.16C1445.38 372.413 1446.47 376.707 1446.47 382.04V383.32H1421.19C1421.25 386.307 1422.23 388.627 1424.15 390.28C1426.13 391.933 1428.31 392.76 1430.71 392.76C1432.79 392.76 1434.66 392.12 1436.31 390.84C1437.81 389.72 1439.01 388.093 1439.91 385.96ZM1421.67 376.6H1438.07C1437.59 374.573 1436.61 372.973 1435.11 371.8C1433.67 370.627 1431.94 370.04 1429.91 370.04C1427.94 370.04 1426.21 370.653 1424.71 371.88C1423.22 373.053 1422.21 374.627 1421.67 376.6ZM1456.72 398.6C1455.71 397.533 1455.2 396.28 1455.2 394.84C1455.2 393.4 1455.71 392.173 1456.72 391.16C1457.79 390.093 1459.04 389.56 1460.48 389.56C1461.92 389.56 1463.15 390.093 1464.16 391.16C1465.23 392.173 1465.76 393.4 1465.76 394.84C1465.76 396.28 1465.23 397.533 1464.16 398.6C1463.15 399.613 1461.92 400.12 1460.48 400.12C1459.04 400.12 1457.79 399.613 1456.72 398.6Z" fill="url(#paint0_linear_372_67)"/>
<defs>
<linearGradient id="paint0_linear_372_67" x1="450" y1="378" x2="1471" y2="378" gradientUnits="userSpaceOnUse">
<stop/>
<stop offset="1" stop-color="#666666"/>
</linearGradient>
</defs>
</svg>
