<svg width="283" height="46" viewBox="0 0 283 46" fill="none" xmlns="http://www.w3.org/2000/svg">
<path d="M21.9 5H13.9V35H8.5V5H0.5V-2.38419e-06H21.9V5ZM24.0984 12.9H29.1984V25.45L44.3984 10.9V35H39.2984V22.15L24.0984 36.7V12.9ZM50.7121 12.9H69.9121V35H64.8121V17.5H55.8121V35H50.7121V12.9ZM78.4527 15.65C80.7194 13.4167 83.5361 12.3 86.9027 12.3C90.2694 12.3 93.0694 13.4167 95.3027 15.65C97.5694 17.85 98.7027 20.6333 98.7027 24C98.7027 27.3667 97.5694 30.1667 95.3027 32.4C93.0694 34.6 90.2694 35.7 86.9027 35.7C83.5361 35.7 80.7194 34.6 78.4527 32.4C76.2194 30.1667 75.1027 27.3667 75.1027 24C75.1027 20.6333 76.2194 17.85 78.4527 15.65ZM82.3027 29.35C83.6027 30.5167 85.1361 31.1 86.9027 31.1C88.6694 31.1 90.1861 30.5167 91.4527 29.35C92.7527 28.15 93.4027 26.3833 93.4027 24.05C93.4027 21.65 92.7527 19.8667 91.4527 18.7C90.1861 17.5 88.6694 16.9 86.9027 16.9C85.1361 16.9 83.6027 17.5 82.3027 18.7C81.0361 19.8667 80.4027 21.65 80.4027 24.05C80.4027 26.3833 81.0361 28.15 82.3027 29.35ZM103.891 35V12.9H117.391V17.5H108.991V35H103.891ZM126.083 12.9V15.3C127.749 13.3 129.983 12.3 132.783 12.3C135.749 12.3 138.266 13.3667 140.333 15.5C142.433 17.6333 143.483 20.4333 143.483 23.9C143.483 27.3667 142.399 30.2 140.233 32.4C138.066 34.6 135.599 35.7 132.833 35.7C132.266 35.7 131.666 35.6333 131.033 35.5C130.399 35.3667 129.583 35.05 128.583 34.55C127.616 34.0167 126.783 33.3167 126.083 32.45V45.5H120.983V12.9H126.083ZM132.033 16.9C130.333 16.9 128.866 17.5333 127.633 18.8C126.399 20.0667 125.783 21.8167 125.783 24.05C125.783 26.05 126.333 27.7333 127.433 29.1C128.533 30.4333 130.066 31.1 132.033 31.1C133.899 31.1 135.383 30.4167 136.483 29.05C137.616 27.6833 138.183 25.9833 138.183 23.95C138.183 21.75 137.566 20.0333 136.333 18.8C135.133 17.5333 133.699 16.9 132.033 16.9ZM164.971 12.9H170.071V35H164.971V32.7C163.271 34.7 161.037 35.7 158.271 35.7C155.037 35.7 152.437 34.5333 150.471 32.2C148.537 29.8667 147.571 27.1167 147.571 23.95C147.571 20.7833 148.537 18.05 150.471 15.75C152.404 13.45 155.021 12.3 158.321 12.3C161.187 12.3 163.404 13.3667 164.971 15.5V12.9ZM159.071 16.9C157.237 16.9 155.737 17.5833 154.571 18.95C153.437 20.3167 152.871 22.0167 152.871 24.05C152.871 26.0167 153.421 27.6833 154.521 29.05C155.654 30.4167 157.171 31.1 159.071 31.1C160.971 31.1 162.471 30.4333 163.571 29.1C164.704 27.7667 165.271 26.0667 165.271 24C165.271 21.7333 164.671 19.9833 163.471 18.75C162.271 17.5167 160.804 16.9 159.071 16.9ZM188.159 45.5V35.35C184.425 35.4167 181.392 34.4667 179.059 32.5C176.592 30.4333 175.359 27.5833 175.359 23.95C175.359 20.3833 176.575 17.55 179.009 15.45C181.275 13.5167 184.325 12.55 188.159 12.55V-2.38419e-06H193.259V12.55C197.092 12.55 200.142 13.5167 202.409 15.45C204.842 17.55 206.059 20.3833 206.059 23.95C206.059 27.5833 204.825 30.4333 202.359 32.5C200.025 34.4667 196.992 35.4167 193.259 35.35V45.5H188.159ZM188.159 30.75V17.15C186.125 17.15 184.542 17.5333 183.409 18.3C181.575 19.4667 180.659 21.35 180.659 23.95C180.659 26.35 181.525 28.1833 183.259 29.45C184.625 30.3833 186.259 30.8167 188.159 30.75ZM193.259 17.15V30.75C195.159 30.8167 196.792 30.3833 198.159 29.45C199.892 28.1833 200.759 26.35 200.759 23.95C200.759 21.35 199.842 19.4667 198.009 18.3C196.842 17.5333 195.259 17.15 193.259 17.15ZM211.371 12.9H216.471V25.45L231.671 10.9V35H226.571V22.15L211.371 36.7V12.9ZM237.984 12.9H243.084V21L250.534 12.9H257.234L247.634 22.55L257.784 35H251.284L243.084 24.8V35H237.984V12.9ZM277.382 12.9H282.482V35H277.382V32.7C275.682 34.7 273.449 35.7 270.682 35.7C267.449 35.7 264.849 34.5333 262.882 32.2C260.949 29.8667 259.982 27.1167 259.982 23.95C259.982 20.7833 260.949 18.05 262.882 15.75C264.816 13.45 267.432 12.3 270.732 12.3C273.599 12.3 275.816 13.3667 277.382 15.5V12.9ZM271.482 16.9C269.649 16.9 268.149 17.5833 266.982 18.95C265.849 20.3167 265.282 22.0167 265.282 24.05C265.282 26.0167 265.832 27.6833 266.932 29.05C268.066 30.4167 269.582 31.1 271.482 31.1C273.382 31.1 274.882 30.4333 275.982 29.1C277.116 27.7667 277.682 26.0667 277.682 24C277.682 21.7333 277.082 19.9833 275.882 18.75C274.682 17.5167 273.216 16.9 271.482 16.9Z" fill="black"/>
</svg>
