<svg width="960" height="180" viewBox="0 0 960 180" fill="none" xmlns="http://www.w3.org/2000/svg">
<path d="M118.345 39H94.3445V129H78.1445V39H54.1445V24H118.345V39ZM124.74 62.7H140.04V100.35L185.64 56.7V129H170.34V90.45L124.74 134.1V62.7ZM204.381 62.7H261.981V129H246.681V76.5H219.681V129H204.381V62.7ZM287.403 70.95C294.203 64.25 302.653 60.9 312.753 60.9C322.853 60.9 331.253 64.25 337.953 70.95C344.753 77.55 348.153 85.9 348.153 96C348.153 106.1 344.753 114.5 337.953 121.2C331.253 127.8 322.853 131.1 312.753 131.1C302.653 131.1 294.203 127.8 287.403 121.2C280.703 114.5 277.353 106.1 277.353 96C277.353 85.9 280.703 77.55 287.403 70.95ZM298.953 112.05C302.853 115.55 307.453 117.3 312.753 117.3C318.053 117.3 322.603 115.55 326.403 112.05C330.303 108.45 332.253 103.15 332.253 96.15C332.253 88.95 330.303 83.6 326.403 80.1C322.603 76.5 318.053 74.7 312.753 74.7C307.453 74.7 302.853 76.5 298.953 80.1C295.153 83.6 293.253 88.95 293.253 96.15C293.253 103.15 295.153 108.45 298.953 112.05ZM363.516 129V62.7H404.016V76.5H378.816V129H363.516ZM429.893 62.7V69.9C434.893 63.9 441.593 60.9 449.993 60.9C458.893 60.9 466.443 64.1 472.643 70.5C478.943 76.9 482.093 85.3 482.093 95.7C482.093 106.1 478.843 114.6 472.343 121.2C465.843 127.8 458.443 131.1 450.143 131.1C448.443 131.1 446.643 130.9 444.743 130.5C442.843 130.1 440.393 129.15 437.393 127.65C434.493 126.05 431.993 123.95 429.893 121.35V160.5H414.593V62.7H429.893ZM447.743 74.7C442.643 74.7 438.243 76.6 434.543 80.4C430.843 84.2 428.993 89.45 428.993 96.15C428.993 102.15 430.643 107.2 433.943 111.3C437.243 115.3 441.843 117.3 447.743 117.3C453.343 117.3 457.793 115.25 461.093 111.15C464.493 107.05 466.193 101.95 466.193 95.85C466.193 89.25 464.343 84.1 460.643 80.4C457.043 76.6 452.743 74.7 447.743 74.7ZM546.357 62.7H561.657V129H546.357V122.1C541.257 128.1 534.557 131.1 526.257 131.1C516.557 131.1 508.757 127.6 502.857 120.6C497.057 113.6 494.157 105.35 494.157 95.85C494.157 86.35 497.057 78.15 502.857 71.25C508.657 64.35 516.507 60.9 526.407 60.9C535.007 60.9 541.657 64.1 546.357 70.5V62.7ZM528.657 74.7C523.157 74.7 518.657 76.75 515.157 80.85C511.757 84.95 510.057 90.05 510.057 96.15C510.057 102.05 511.707 107.05 515.007 111.15C518.407 115.25 522.957 117.3 528.657 117.3C534.357 117.3 538.857 115.3 542.157 111.3C545.557 107.3 547.257 102.2 547.257 96C547.257 89.2 545.457 83.95 541.857 80.25C538.257 76.55 533.857 74.7 528.657 74.7ZM615.72 160.5V130.05C604.52 130.25 595.42 127.4 588.42 121.5C581.02 115.3 577.32 106.75 577.32 95.85C577.32 85.15 580.97 76.65 588.27 70.35C595.07 64.55 604.22 61.65 615.72 61.65V24H631.02V61.65C642.52 61.65 651.67 64.55 658.47 70.35C665.77 76.65 669.42 85.15 669.42 95.85C669.42 106.75 665.72 115.3 658.32 121.5C651.32 127.4 642.22 130.25 631.02 130.05V160.5H615.72ZM615.72 116.25V75.45C609.62 75.45 604.87 76.6 601.47 78.9C595.97 82.4 593.22 88.05 593.22 95.85C593.22 103.05 595.82 108.55 601.02 112.35C605.12 115.15 610.02 116.45 615.72 116.25ZM631.02 75.45V116.25C636.72 116.45 641.62 115.15 645.72 112.35C650.92 108.55 653.52 103.05 653.52 95.85C653.52 88.05 650.77 82.4 645.27 78.9C641.77 76.6 637.02 75.45 631.02 75.45ZM685.157 62.7H700.457V100.35L746.057 56.7V129H730.757V90.45L685.157 134.1V62.7ZM764.798 62.7H780.098V87L802.448 62.7H822.548L793.748 91.65L824.198 129H804.698L780.098 98.4V129H764.798V62.7ZM882.792 62.7H898.092V129H882.792V122.1C877.692 128.1 870.992 131.1 862.692 131.1C852.992 131.1 845.192 127.6 839.292 120.6C833.492 113.6 830.592 105.35 830.592 95.85C830.592 86.35 833.492 78.15 839.292 71.25C845.092 64.35 852.942 60.9 862.842 60.9C871.442 60.9 878.092 64.1 882.792 70.5V62.7ZM865.092 74.7C859.592 74.7 855.092 76.75 851.592 80.85C848.192 84.95 846.492 90.05 846.492 96.15C846.492 102.05 848.142 107.05 851.442 111.15C854.842 115.25 859.392 117.3 865.092 117.3C870.792 117.3 875.292 115.3 878.592 111.3C881.992 107.3 883.692 102.2 883.692 96C883.692 89.2 881.892 83.95 878.292 80.25C874.692 76.55 870.292 74.7 865.092 74.7Z" fill="url(#paint0_linear_125_256)"/>
<defs>
<linearGradient id="paint0_linear_125_256" x1="480" y1="81.5" x2="480" y2="180" gradientUnits="userSpaceOnUse">
<stop/>
<stop offset="1" stop-color="white"/>
</linearGradient>
</defs>
</svg>
