<svg width="476" height="270" viewBox="0 0 476 270" fill="none" xmlns="http://www.w3.org/2000/svg">
<g clip-path="url(#clip0_123_235)">
<path d="M176 5C176 2.23858 178.239 0 181 0H476V24H176V5Z" fill="#3A3A3A"/>
<path d="M176 24H178V284H176V24Z" fill="#3A3A3A"/>
<circle cx="187" cy="12" r="3" fill="#D9D9D9"/>
<circle cx="196" cy="12" r="3" fill="#D9D9D9"/>
<circle cx="205" cy="12" r="3" fill="#D9D9D9"/>
<rect x="184" y="39" width="100" height="30" rx="3" fill="#3A3A3A"/>
<rect x="184" y="71" width="100" height="10" rx="2" fill="#3A3A3A"/>
<rect x="184" y="163" width="160" height="10" rx="2" fill="#3A3A3A"/>
<rect x="184" y="188" width="40" height="40" rx="3" fill="#3A3A3A"/>
<rect x="184" y="234" width="80" height="7" rx="2" fill="#3A3A3A"/>
<rect x="184" y="243" width="80" height="7" rx="2" fill="#3A3A3A"/>
<rect x="184" y="254" width="70" height="7" rx="2" fill="#3A3A3A"/>
<rect x="284" y="188" width="40" height="40" rx="3" fill="#3A3A3A"/>
<rect x="284" y="234" width="80" height="7" rx="2" fill="#3A3A3A"/>
<rect x="284" y="243" width="80" height="7" rx="2" fill="#3A3A3A"/>
<rect x="284" y="254" width="70" height="7" rx="2" fill="#3A3A3A"/>
<rect x="384" y="188" width="40" height="40" rx="3" fill="#3A3A3A"/>
<rect x="384" y="234" width="80" height="7" rx="2" fill="#3A3A3A"/>
<rect x="384" y="243" width="80" height="7" rx="2" fill="#3A3A3A"/>
<rect x="384" y="254" width="70" height="7" rx="2" fill="#3A3A3A"/>
<rect x="308" y="39" width="160" height="114" rx="3" fill="#3A3A3A"/>
</g>
<g clip-path="url(#clip1_123_235)">
<rect width="300" height="162" transform="translate(0 108)" fill="#D9D9D9"/>
<path d="M0 113C0 110.239 2.23858 108 5 108H295C297.761 108 300 110.239 300 113V132H0V113Z" fill="#3A3A3A"/>
<path d="M0 132H2V392H0V132Z" fill="#3A3A3A"/>
<circle cx="11" cy="120" r="3" fill="#D9D9D9"/>
<circle cx="20" cy="120" r="3" fill="#D9D9D9"/>
<circle cx="29" cy="120" r="3" fill="#D9D9D9"/>
<rect x="8" y="147" width="44" height="16" rx="3" fill="#3A3A3A"/>
<rect x="276" y="147" width="16" height="16" rx="8" fill="#3A3A3A"/>
<rect x="8" y="171" width="284" height="114" rx="3" fill="#3A3A3A"/>
<path d="M298 132H300V392H298V132Z" fill="#3A3A3A"/>
<circle cx="150" cy="228" r="15" fill="#D9D9D9"/>
<path d="M157.25 227.567C157.583 227.759 157.583 228.241 157.25 228.433L146.75 234.495C146.417 234.688 146 234.447 146 234.062L146 221.938C146 221.553 146.417 221.312 146.75 221.505L157.25 227.567Z" fill="#3A3A3A"/>
</g>
<path d="M111 59V47V41C118.73 41 125 47.27 125 55C125 62.73 118.73 69 111 69H74C67.93 69 63 64.08 63 58C63 51.92 67.93 47 74 47H77V59H111Z" fill="#E6E9ED"/>
<path d="M113.001 59H75.001C74.448 59 74.001 58.553 74.001 58C74.001 57.447 74.448 57 75.001 57H113.001C113.554 57 114.001 57.447 114.001 58C114.001 58.553 113.554 59 113.001 59Z" fill="#CCD1D9"/>
<path d="M111 23H77V59H111V23Z" fill="#5E5B5B"/>
<path d="M111 23H77L81 19H107L111 23Z" fill="#3A3A3A"/>
<path d="M83 39C84.11 39 85 39.89 85 41C85 42.1 84.11 43 83 43C81.9 43 81 42.1 81 41C81 39.89 81.9 39 83 39Z" fill="#B7B7B7"/>
<path d="M83 27C84.11 27 85 27.89 85 29C85 30.1 84.11 31 83 31C81.9 31 81 30.1 81 29C81 27.89 81.9 27 83 27Z" fill="#D9D9D9"/>
<path d="M83 51C84.11 51 85 51.89 85 53C85 54.1 84.11 55 83 55C81.9 55 81 54.1 81 53C81 51.89 81.9 51 83 51Z" fill="#D9D9D9"/>
<path d="M111 41V47H78H77V35H111V41ZM85 41C85 39.89 84.11 39 83 39C81.9 39 81 39.89 81 41C81 42.1 81.9 43 83 43C84.11 43 85 42.1 85 41Z" fill="#3A3A3A"/>
<path d="M125 59C125 66.74 118.73 73 111 73H74C67.93 73 63 68.08 63 62V58C63 64.08 67.93 69 74 69H111C118.73 69 125 62.73 125 55V59Z" fill="#CCD1D9"/>
<path d="M98 30.9979C97.85 30.9979 97.697 30.9639 97.554 30.8929C97.06 30.6459 96.86 30.0449 97.107 29.5509L98.107 27.5509C98.355 27.0569 98.954 26.8579 99.449 27.1039C99.943 27.3509 100.143 27.9519 99.896 28.4459L98.896 30.4459C98.72 30.7959 98.367 30.9979 98 30.9979Z" fill="#D9D9D9"/>
<path d="M102 30.9979C101.85 30.9979 101.697 30.9639 101.554 30.8929C101.06 30.6459 100.86 30.0449 101.107 29.5509L102.107 27.5509C102.355 27.0569 102.956 26.8579 103.449 27.1039C103.943 27.3509 104.143 27.9519 103.896 28.4459L102.896 30.4459C102.72 30.7959 102.367 30.9979 102 30.9979Z" fill="#D9D9D9"/>
<path d="M106 30.9979C105.85 30.9979 105.697 30.9639 105.554 30.8929C105.06 30.6459 104.86 30.0449 105.107 29.5509L106.107 27.5509C106.354 27.0569 106.955 26.8579 107.449 27.1039C107.943 27.3509 108.143 27.9519 107.896 28.4459L106.896 30.4459C106.72 30.7959 106.367 30.9979 106 30.9979Z" fill="#D9D9D9"/>
<path d="M98 42.9979C97.85 42.9979 97.697 42.9639 97.554 42.8929C97.06 42.6459 96.86 42.0449 97.107 41.5509L98.107 39.5509C98.355 39.0569 98.954 38.8579 99.449 39.1039C99.943 39.3509 100.143 39.9519 99.896 40.4459L98.896 42.4459C98.72 42.7959 98.367 42.9979 98 42.9979Z" fill="#B7B7B7"/>
<path d="M102 42.9979C101.85 42.9979 101.697 42.9639 101.554 42.8929C101.06 42.6459 100.86 42.0449 101.107 41.5509L102.107 39.5509C102.355 39.0569 102.956 38.8579 103.449 39.1039C103.943 39.3509 104.143 39.9519 103.896 40.4459L102.896 42.4459C102.72 42.7959 102.367 42.9979 102 42.9979Z" fill="#B7B7B7"/>
<path d="M106 42.9979C105.85 42.9979 105.697 42.9639 105.554 42.8929C105.06 42.6459 104.86 42.0449 105.107 41.5509L106.107 39.5509C106.354 39.0569 106.955 38.8579 107.449 39.1039C107.943 39.3509 108.143 39.9519 107.896 40.4459L106.896 42.4459C106.72 42.7959 106.367 42.9979 106 42.9979Z" fill="#B7B7B7"/>
<path d="M98 54.9979C97.85 54.9979 97.697 54.9639 97.554 54.8929C97.06 54.6459 96.86 54.0449 97.107 53.5509L98.107 51.5509C98.355 51.0569 98.954 50.8579 99.449 51.1039C99.943 51.3509 100.143 51.9519 99.896 52.4459L98.896 54.4459C98.72 54.7959 98.367 54.9979 98 54.9979Z" fill="#D9D9D9"/>
<path d="M102 54.9979C101.85 54.9979 101.697 54.9639 101.554 54.8929C101.06 54.6459 100.86 54.0449 101.107 53.5509L102.107 51.5509C102.355 51.0569 102.956 50.8579 103.449 51.1039C103.943 51.3509 104.143 51.9519 103.896 52.4459L102.896 54.4459C102.72 54.7959 102.367 54.9979 102 54.9979Z" fill="#D9D9D9"/>
<path d="M106 54.9979C105.85 54.9979 105.697 54.9639 105.554 54.8929C105.06 54.6459 104.86 54.0449 105.107 53.5509L106.107 51.5509C106.354 51.0569 106.955 50.8579 107.449 51.1039C107.943 51.3509 108.143 51.9519 107.896 52.4459L106.896 54.4459C106.72 54.7959 106.367 54.9979 106 54.9979Z" fill="#D9D9D9"/>
<path d="M131 56.1184H171" stroke="#7E7E7E" stroke-linecap="round" stroke-dasharray="2 2"/>
<path d="M93 102.106L93 78.6768" stroke="#7E7E7E" stroke-linecap="round" stroke-dasharray="2 2"/>
<defs>
<clipPath id="clip0_123_235">
<rect width="300" height="270" fill="white" transform="translate(176)"/>
</clipPath>
<clipPath id="clip1_123_235">
<rect width="300" height="162" fill="white" transform="translate(0 108)"/>
</clipPath>
</defs>
</svg>
