<svg width="315" height="" viewBox="0 0 315 270" fill="none" xmlns="http://www.w3.org/2000/svg">
<g clip-path="url(#clip0_123_64)">
<path d="M0 3.4C0 1.52223 1.52223 0 3.4 0H311.6C313.478 0 315 1.52223 315 3.4V25H0V3.4Z" fill="#3A3A3A"/>
<path d="M0 25H2V298H0V25Z" fill="#3A3A3A"/>
<path d="M313 25H315V298H313V25Z" fill="#3A3A3A"/>
<circle cx="11.5" cy="12.5" r="3.5" fill="#D9D9D9"/>
<ellipse cx="21" cy="12.5" rx="3" ry="3.5" fill="#D9D9D9"/>
<circle cx="30.5" cy="12.5" r="3.5" fill="#D9D9D9"/>
<rect x="8" y="41" width="105" height="31" rx="2" fill="#3A3A3A"/>
<rect x="8" y="75" width="105" height="10" rx="1" fill="#3A3A3A"/>
<rect x="8" y="171" width="168" height="11" rx="1" fill="#3A3A3A"/>
<rect x="8" y="197" width="42" height="42" rx="3" fill="#3A3A3A"/>
<rect x="8" y="246" width="84" height="7" rx="2" fill="#3A3A3A"/>
<rect x="8" y="255" width="84" height="7" rx="2" fill="#3A3A3A"/>
<rect x="8" y="267" width="74" height="7" rx="2" fill="#3A3A3A"/>
<rect x="113" y="197" width="42" height="42" rx="3" fill="#3A3A3A"/>
<rect x="113" y="246" width="84" height="7" rx="2" fill="#3A3A3A"/>
<rect x="113" y="255" width="84" height="7" rx="2" fill="#3A3A3A"/>
<rect x="113" y="267" width="74" height="7" rx="2" fill="#3A3A3A"/>
<rect x="218" y="197" width="42" height="42" rx="3" fill="#3A3A3A"/>
<rect x="218" y="246" width="84" height="7" rx="2" fill="#3A3A3A"/>
<rect x="218" y="255" width="84" height="7" rx="2" fill="#3A3A3A"/>
<rect x="218" y="267" width="74" height="7" rx="2" fill="#3A3A3A"/>
<rect x="139" y="41" width="168" height="120" rx="2" fill="#3A3A3A"/>
</g>
<defs>
<clipPath id="clip0_123_64">
<rect width="315" height="270" fill="white"/>
</clipPath>
</defs>
</svg>
