<svg width="428" height="270" viewBox="0 0 428 270" fill="none" xmlns="http://www.w3.org/2000/svg">
<g clip-path="url(#clip0_123_234)">
<path d="M128 5C128 2.23858 130.239 0 133 0H428V24H128V5Z" fill="#3A3A3A"/>
<path d="M128 24H130V284H128V24Z" fill="#3A3A3A"/>
<circle cx="139" cy="12" r="3" fill="#D9D9D9"/>
<circle cx="148" cy="12" r="3" fill="#D9D9D9"/>
<circle cx="157" cy="12" r="3" fill="#D9D9D9"/>
<rect x="136" y="39" width="100" height="30" rx="3" fill="#3A3A3A"/>
<rect x="136" y="71" width="100" height="10" rx="2" fill="#3A3A3A"/>
<rect x="136" y="163" width="160" height="10" rx="2" fill="#3A3A3A"/>
<rect x="136" y="188" width="40" height="40" rx="3" fill="#3A3A3A"/>
<rect x="136" y="234" width="80" height="7" rx="2" fill="#3A3A3A"/>
<rect x="136" y="243" width="80" height="7" rx="2" fill="#3A3A3A"/>
<rect x="136" y="254" width="70" height="7" rx="2" fill="#3A3A3A"/>
<rect x="236" y="188" width="40" height="40" rx="3" fill="#3A3A3A"/>
<rect x="236" y="234" width="80" height="7" rx="2" fill="#3A3A3A"/>
<rect x="236" y="243" width="80" height="7" rx="2" fill="#3A3A3A"/>
<rect x="236" y="254" width="70" height="7" rx="2" fill="#3A3A3A"/>
<rect x="336" y="188" width="40" height="40" rx="3" fill="#3A3A3A"/>
<rect x="336" y="234" width="80" height="7" rx="2" fill="#3A3A3A"/>
<rect x="336" y="243" width="80" height="7" rx="2" fill="#3A3A3A"/>
<rect x="336" y="254" width="70" height="7" rx="2" fill="#3A3A3A"/>
<rect x="260" y="39" width="160" height="114" rx="3" fill="#3A3A3A"/>
</g>
<g clip-path="url(#clip1_123_234)">
<rect width="256" height="142" transform="translate(0 128)" fill="#D9D9D9"/>
<path d="M0 133C0 130.239 2.23858 128 5 128H251C253.761 128 256 130.239 256 133V152H0V133Z" fill="#3A3A3A"/>
<path d="M0 152H2V412H0V152Z" fill="#3A3A3A"/>
<path d="M254 152H256V412H254V152Z" fill="#3A3A3A"/>
<circle cx="11" cy="140" r="3" fill="#D9D9D9"/>
<circle cx="20" cy="140" r="3" fill="#D9D9D9"/>
<circle cx="29" cy="140" r="3" fill="#D9D9D9"/>
<rect x="8" y="160" width="240" height="10" rx="2" fill="#3A3A3A"/>
<rect x="8" y="174" width="45" height="7" rx="2" fill="#3A3A3A"/>
<rect x="8" y="185" width="45" height="77" rx="2" fill="#3A3A3A"/>
<rect x="65" y="174" width="40" height="40" rx="3" fill="#3A3A3A"/>
<rect x="113" y="174" width="40" height="40" rx="3" fill="#3A3A3A"/>
<rect x="161" y="174" width="40" height="40" rx="3" fill="#3A3A3A"/>
<rect x="208" y="174" width="40" height="40" rx="3" fill="#3A3A3A"/>
<rect x="65" y="222" width="40" height="40" rx="3" fill="#3A3A3A"/>
<rect x="113" y="222" width="40" height="40" rx="3" fill="#3A3A3A"/>
<rect x="161" y="222" width="40" height="40" rx="3" fill="#3A3A3A"/>
<rect x="208" y="222" width="40" height="40" rx="3" fill="#3A3A3A"/>
<path d="M57 174V251.081V266" stroke="#3A3A3A" stroke-linecap="round"/>
</g>
<defs>
<clipPath id="clip0_123_234">
<rect width="300" height="270" fill="white" transform="translate(128)"/>
</clipPath>
<clipPath id="clip1_123_234">
<rect width="256" height="142" fill="white" transform="translate(0 128)"/>
</clipPath>
</defs>
</svg>
